# xmcd
#
# Track frame offsets: 
#        150
#        18145
#        40190
#        59335
#        80340
#        95120
#        111652
#        122010
#        152827
#        174802
#
# Disc length: 2494 seconds
#
# Revision: 3
# Processed by: cddbd v1.5.2PL0 Copyright (c) Steve Scherf et al.
# Submitted via: ExactAudioCopy v0.99pb5
#
DISCID=7909bc0a
DTITLE=Ronnie Earl - I Like it When it Rains
DYEAR=1990
DGENRE=Blues
TTITLE0=Ridin With Ronnie
TTITLE1=Linda
TTITLE2=Midnite Clothes
TTITLE3=Mutcika
TTITLE4=I Like it When it Rains
TTITLE5=Walkin and Cryin
TTITLE6=Down on Guadalupe
TTITLE7=Anna Lee
TTITLE8=Sittin on Top of the World
TTITLE9=Blues for Jimmie and Jessie
EXTD=
EXTT0=
EXTT1=
EXTT2=
EXTT3=
EXTT4=
EXTT5=
EXTT6=
EXTT7=
EXTT8=
EXTT9=
PLAYORDER=
